<svg width="191" height="167" viewBox="0 0 191 167" fill="none" xmlns="http://www.w3.org/2000/svg">
<path fill-rule="evenodd" clip-rule="evenodd" d="M160.964 153.86C157.07 154.987 152.936 154.987 149.041 153.86V139.517L155.003 133.556L160.964 139.517V153.86ZM182.144 39.6283L109.344 3.22833C104.997 1.10414 100.222 0 95.3826 0C90.5437 0 85.7686 1.10414 81.4209 3.22833L8.6209 39.6283C6.02965 40.9257 3.85072 42.9189 2.32813 45.3845C0.805543 47.8502 -0.000592824 50.6911 3.27092e-07 53.589C0.000593478 56.4869 0.807892 59.3274 2.33149 61.7924C3.85509 64.2575 6.03483 66.2497 8.62661 67.5461L29.8072 78.1392V113.203C29.8072 133.257 58.6072 148.975 95.3832 148.975C106.016 149.031 116.605 147.61 126.847 144.754L123.533 133.296C114.369 135.845 104.895 137.109 95.3832 137.051C63.7638 137.051 41.7306 124.48 41.7306 113.205V84.1015L81.422 103.953C85.7579 106.118 90.538 107.245 95.3844 107.244C100.231 107.243 105.011 106.114 109.345 103.947L133.817 91.7083L128.488 81.0432L104.015 93.2809C101.329 94.5968 98.3777 95.281 95.3866 95.281C92.3955 95.281 89.4441 94.5968 86.758 93.2809L13.9695 56.8809C13.3561 56.5769 12.8397 56.1076 12.4785 55.526C12.1173 54.9445 11.9257 54.2736 11.9251 53.589C11.9245 52.9043 12.115 52.2331 12.4752 51.6509C12.8353 51.0687 13.3509 50.5986 13.9638 50.2935L86.7638 13.8935C89.4498 12.5776 92.4013 11.8934 95.3923 11.8934C98.3834 11.8934 101.335 12.5776 104.021 13.8935L176.809 50.2935C177.423 50.5975 177.939 51.0668 178.3 51.6483C178.662 52.2299 178.853 52.9008 178.854 53.5854C178.854 54.27 178.664 54.9412 178.304 55.5235C177.944 56.1057 177.428 56.5758 176.815 56.8809L154.597 67.9872L97.3558 47.9621L93.4209 59.2169L149.04 78.6866V122.658L137.118 134.581V161.599L140.415 163.244C144.972 165.453 149.941 166.684 155.003 166.857C160.064 166.684 165.033 165.453 169.59 163.244L172.887 161.599V134.581L160.965 122.659V78.1381L182.151 67.5449C184.742 66.2475 186.921 64.2544 188.444 61.7887C189.967 59.323 190.773 56.4822 190.772 53.5843C190.771 50.6864 189.964 47.8459 188.441 45.3808C186.917 42.9158 184.737 40.9235 182.145 39.6272L182.144 39.6283Z" fill="#FD3667"/>
</svg>
